<mxfile host="app.diagrams.net" modified="2024-03-03T03:55:27.041Z" agent="Mozilla/5.0 (Windows NT 10.0; Win64; x64) AppleWebKit/537.36 (KHTML, like Gecko) Chrome/122.0.0.0 Safari/537.36 Edg/122.0.0.0" etag="1F0jZ5TlsbB0JtKLAIqJ" version="22.1.16" type="device">
  <diagram name="Halaman-1" id="YK0zD_LJX1PF2Qp_7JvF">
    <mxGraphModel dx="1002" dy="535" grid="1" gridSize="10" guides="1" tooltips="1" connect="1" arrows="1" fold="1" page="1" pageScale="1" pageWidth="827" pageHeight="1169" math="0" shadow="0">
      <root>
        <mxCell id="0" />
        <mxCell id="1" parent="0" />
        <mxCell id="XhaUQZFJO0_88AJM5gD7-1" value="RSU Muhammadiyah Metro" style="rounded=0;whiteSpace=wrap;html=1;" vertex="1" parent="1">
          <mxGeometry x="320" y="80" width="120" height="60" as="geometry" />
        </mxCell>
        <mxCell id="XhaUQZFJO0_88AJM5gD7-2" value="Divisi Pelayanan Medik &amp;amp; Penunjang" style="rounded=0;whiteSpace=wrap;html=1;" vertex="1" parent="1">
          <mxGeometry x="80" y="190" width="120" height="60" as="geometry" />
        </mxCell>
        <mxCell id="XhaUQZFJO0_88AJM5gD7-3" value="" style="endArrow=none;html=1;rounded=0;entryX=0.5;entryY=1;entryDx=0;entryDy=0;exitX=0.5;exitY=0;exitDx=0;exitDy=0;" edge="1" parent="1" source="XhaUQZFJO0_88AJM5gD7-2" target="XhaUQZFJO0_88AJM5gD7-1">
          <mxGeometry width="50" height="50" relative="1" as="geometry">
            <mxPoint x="390" y="300" as="sourcePoint" />
            <mxPoint x="440" y="250" as="targetPoint" />
            <Array as="points">
              <mxPoint x="140" y="160" />
              <mxPoint x="260" y="160" />
              <mxPoint x="380" y="160" />
            </Array>
          </mxGeometry>
        </mxCell>
        <mxCell id="XhaUQZFJO0_88AJM5gD7-4" value="Klinik Rawat Jalan" style="rounded=0;whiteSpace=wrap;html=1;" vertex="1" parent="1">
          <mxGeometry x="30" y="280" width="90" height="60" as="geometry" />
        </mxCell>
        <mxCell id="XhaUQZFJO0_88AJM5gD7-5" value="Farmasi" style="rounded=0;whiteSpace=wrap;html=1;" vertex="1" parent="1">
          <mxGeometry x="160" y="280" width="90" height="60" as="geometry" />
        </mxCell>
        <mxCell id="XhaUQZFJO0_88AJM5gD7-6" value="" style="endArrow=none;html=1;rounded=0;exitX=1;exitY=0.5;exitDx=0;exitDy=0;entryX=0;entryY=0.5;entryDx=0;entryDy=0;" edge="1" parent="1" source="XhaUQZFJO0_88AJM5gD7-4" target="XhaUQZFJO0_88AJM5gD7-5">
          <mxGeometry width="50" height="50" relative="1" as="geometry">
            <mxPoint x="390" y="300" as="sourcePoint" />
            <mxPoint x="440" y="250" as="targetPoint" />
          </mxGeometry>
        </mxCell>
        <mxCell id="XhaUQZFJO0_88AJM5gD7-7" value="" style="endArrow=none;html=1;rounded=0;entryX=0.5;entryY=1;entryDx=0;entryDy=0;exitX=0.004;exitY=0.647;exitDx=0;exitDy=0;exitPerimeter=0;" edge="1" parent="1" source="XhaUQZFJO0_88AJM5gD7-15" target="XhaUQZFJO0_88AJM5gD7-2">
          <mxGeometry width="50" height="50" relative="1" as="geometry">
            <mxPoint x="140" y="460" as="sourcePoint" />
            <mxPoint x="140" y="270" as="targetPoint" />
            <Array as="points">
              <mxPoint x="140" y="600" />
            </Array>
          </mxGeometry>
        </mxCell>
        <mxCell id="XhaUQZFJO0_88AJM5gD7-8" value="Klinik Rawat Inap" style="rounded=0;whiteSpace=wrap;html=1;" vertex="1" parent="1">
          <mxGeometry x="30" y="350" width="90" height="60" as="geometry" />
        </mxCell>
        <mxCell id="XhaUQZFJO0_88AJM5gD7-9" value="Laboratorium" style="rounded=0;whiteSpace=wrap;html=1;" vertex="1" parent="1">
          <mxGeometry x="160" y="350" width="90" height="60" as="geometry" />
        </mxCell>
        <mxCell id="XhaUQZFJO0_88AJM5gD7-10" value="IGD" style="rounded=0;whiteSpace=wrap;html=1;" vertex="1" parent="1">
          <mxGeometry x="30" y="420" width="90" height="60" as="geometry" />
        </mxCell>
        <mxCell id="XhaUQZFJO0_88AJM5gD7-11" value="Radiologi" style="rounded=0;whiteSpace=wrap;html=1;" vertex="1" parent="1">
          <mxGeometry x="160" y="420" width="90" height="60" as="geometry" />
        </mxCell>
        <mxCell id="XhaUQZFJO0_88AJM5gD7-12" value="" style="endArrow=none;html=1;rounded=0;exitX=1;exitY=0.5;exitDx=0;exitDy=0;" edge="1" parent="1" source="XhaUQZFJO0_88AJM5gD7-8" target="XhaUQZFJO0_88AJM5gD7-9">
          <mxGeometry width="50" height="50" relative="1" as="geometry">
            <mxPoint x="390" y="300" as="sourcePoint" />
            <mxPoint x="440" y="250" as="targetPoint" />
          </mxGeometry>
        </mxCell>
        <mxCell id="XhaUQZFJO0_88AJM5gD7-13" value="" style="endArrow=none;html=1;rounded=0;exitX=1;exitY=0.5;exitDx=0;exitDy=0;entryX=0;entryY=0.5;entryDx=0;entryDy=0;" edge="1" parent="1" source="XhaUQZFJO0_88AJM5gD7-10" target="XhaUQZFJO0_88AJM5gD7-11">
          <mxGeometry width="50" height="50" relative="1" as="geometry">
            <mxPoint x="130" y="390" as="sourcePoint" />
            <mxPoint x="170" y="390" as="targetPoint" />
          </mxGeometry>
        </mxCell>
        <mxCell id="XhaUQZFJO0_88AJM5gD7-14" value="Gizi" style="rounded=0;whiteSpace=wrap;html=1;" vertex="1" parent="1">
          <mxGeometry x="160" y="490" width="90" height="60" as="geometry" />
        </mxCell>
        <mxCell id="XhaUQZFJO0_88AJM5gD7-15" value="Rekam Medis" style="rounded=0;whiteSpace=wrap;html=1;" vertex="1" parent="1">
          <mxGeometry x="160" y="560" width="90" height="60" as="geometry" />
        </mxCell>
        <mxCell id="XhaUQZFJO0_88AJM5gD7-17" value="" style="endArrow=none;html=1;rounded=0;entryX=0;entryY=0.5;entryDx=0;entryDy=0;" edge="1" parent="1" target="XhaUQZFJO0_88AJM5gD7-14">
          <mxGeometry width="50" height="50" relative="1" as="geometry">
            <mxPoint x="140" y="520" as="sourcePoint" />
            <mxPoint x="140" y="520" as="targetPoint" />
          </mxGeometry>
        </mxCell>
      </root>
    </mxGraphModel>
  </diagram>
</mxfile>
